# xmcd CD database file
#
# Track frame offsets:
#	150
#	21125
#	39030
#	53480
#	67635
#	82528
#	97313
#	113248
#	126508
#	140618
#	152160
#	166188
#	179973
#	198350
#	212588
#
# Disc length: 2998 seconds
#
# Revision: 0
# Processed by: cddbd v1.5.2PL0 Copyright (c) Steve Scherf et al.
# Submitted via: CDex 1.70beta2
#
DISCID=c40bb40f
DTITLE=EDWARD SIMON $ DANIELA DE SANTOS - Pan-Magic Zauber der Panfloten
DYEAR=1999
DGENRE=New Age
TTITLE0=THEME FROM TITANIC
TTITLE1=CANDLE IN THE WIND
TTITLE2=PAN-MAGIE
TTITLE3=REGENTROPEEN-SERENADE
TTITLE4=INSEL DER TRAUME
TTITLE5=AIR
TTITLE6=MUSIC IN PARADISE
TTITLE7=CEFANGENENCHOR AUS NABUCCO
TTITLE8=SINA
TTITLE9=AVE MARIA
TTITLE10=PANORAMA
TTITLE11=NUR WIR BEIDE
TTITLE12=TIME TO SAY GOODBYE
TTITLE13=LA PARADA
TTITLE14=CAN CAN
EXTD=YEAR: 1999
EXTT0=
EXTT1=
EXTT2=
EXTT3=
EXTT4=
EXTT5=
EXTT6=
EXTT7=
EXTT8=
EXTT9=
EXTT10=
EXTT11=
EXTT12=
EXTT13=
EXTT14=
PLAYORDER=
